<svg viewBox="0 0 188 111.59764705882347" width="188" height="111.59764705882347" fill="none" xmlns="http://www.w3.org/2000/svg" id="Standard" class="p-2 "><g><rect id="backdrop" x="41" y="41" height="71.59764705882347" width="149" fill="#6F003C"></rect><path d="M73.32 88.65L75.13 88.65L75.13 100.60L73.32 100.60L73.32 88.65ZM79.19 100.60L77.45 100.60L77.45 91.64L79.12 91.64L79.12 93.09L79.23 93.09Q79.51 92.35 80.15 91.94Q80.78 91.52 81.67 91.52L81.67 91.52Q82.57 91.52 83.18 91.94Q83.79 92.36 84.08 93.09L84.08 93.09L84.17 93.09Q84.49 92.38 85.19 91.95Q85.89 91.52 86.86 91.52L86.86 91.52Q88.08 91.52 88.86 92.28Q89.63 93.05 89.63 94.59L89.63 94.59L89.63 100.60L87.88 100.60L87.88 94.75Q87.88 93.84 87.39 93.43Q86.89 93.02 86.20 93.02L86.20 93.02Q85.35 93.02 84.88 93.55Q84.41 94.07 84.41 94.89L84.41 94.89L84.41 100.60L82.67 100.60L82.67 94.64Q82.67 93.91 82.21 93.47Q81.76 93.02 81.03 93.02L81.03 93.02Q80.53 93.02 80.12 93.28Q79.70 93.54 79.44 94.00Q79.19 94.47 79.19 95.07L79.19 95.07L79.19 100.60ZM100.71 100.60L96.13 100.60L96.13 88.65L100.50 88.65Q101.77 88.65 102.61 89.07Q103.44 89.48 103.86 90.19Q104.27 90.90 104.27 91.79L104.27 91.79Q104.27 92.53 104.00 93.04Q103.72 93.56 103.27 93.86Q102.81 94.17 102.26 94.31L102.26 94.31L102.26 94.42Q102.85 94.45 103.42 94.81Q103.99 95.16 104.37 95.81Q104.74 96.46 104.74 97.38L104.74 97.38Q104.74 98.30 104.31 99.03Q103.88 99.75 102.99 100.17Q102.10 100.60 100.71 100.60L100.71 100.60ZM97.93 95.22L97.93 99.05L100.53 99.05Q101.83 99.05 102.39 98.55Q102.95 98.05 102.95 97.30L102.95 97.30Q102.95 96.73 102.66 96.26Q102.38 95.78 101.85 95.50Q101.32 95.22 100.60 95.22L100.60 95.22L97.93 95.22ZM97.93 90.18L97.93 93.82L100.35 93.82Q100.95 93.82 101.44 93.58Q101.93 93.35 102.22 92.93Q102.50 92.51 102.50 91.93L102.50 91.93Q102.50 91.19 101.98 90.68Q101.47 90.18 100.39 90.18L100.39 90.18L97.93 90.18ZM112.25 96.88L112.25 96.88L112.25 91.64L114.00 91.64L114.00 100.60L112.28 100.60L112.28 99.05L112.19 99.05Q111.88 99.76 111.20 100.24Q110.52 100.71 109.51 100.71L109.51 100.71Q108.65 100.71 107.98 100.33Q107.32 99.95 106.95 99.20Q106.57 98.44 106.57 97.34L106.57 97.34L106.57 91.64L108.31 91.64L108.31 97.13Q108.31 98.04 108.82 98.58Q109.33 99.13 110.14 99.13L110.14 99.13Q110.63 99.13 111.12 98.88Q111.60 98.64 111.93 98.14Q112.25 97.65 112.25 96.88ZM117.92 95.28L117.92 95.28L117.92 100.60L116.17 100.60L116.17 91.64L117.85 91.64L117.85 93.09L117.96 93.09Q118.27 92.38 118.93 91.95Q119.59 91.52 120.60 91.52L120.60 91.52Q121.52 91.52 122.21 91.90Q122.89 92.28 123.27 93.04Q123.65 93.79 123.65 94.90L123.65 94.90L123.65 100.60L121.91 100.60L121.91 95.11Q121.91 94.13 121.40 93.58Q120.89 93.03 120.01 93.03L120.01 93.03Q119.40 93.03 118.93 93.29Q118.46 93.56 118.19 94.06Q117.92 94.56 117.92 95.28ZM129.18 100.77L129.18 100.77Q128.09 100.77 127.24 100.22Q126.39 99.66 125.91 98.62Q125.43 97.59 125.43 96.13L125.43 96.13Q125.43 94.68 125.92 93.65Q126.41 92.62 127.26 92.07Q128.11 91.52 129.19 91.52L129.19 91.52Q130.02 91.52 130.53 91.80Q131.04 92.07 131.33 92.44Q131.61 92.81 131.77 93.09L131.77 93.09L131.87 93.09L131.87 88.65L133.62 88.65L133.62 100.60L131.91 100.60L131.91 99.20L131.77 99.20Q131.61 99.49 131.31 99.86Q131.02 100.22 130.51 100.50Q129.99 100.77 129.18 100.77ZM129.56 99.28L129.56 99.28Q130.31 99.28 130.84 98.89Q131.36 98.49 131.63 97.77Q131.90 97.06 131.90 96.12L131.90 96.12Q131.90 95.18 131.63 94.48Q131.36 93.78 130.85 93.39Q130.33 93.00 129.56 93.00L129.56 93.00Q128.77 93.00 128.25 93.41Q127.72 93.82 127.46 94.52Q127.19 95.23 127.19 96.12L127.19 96.12Q127.19 97.02 127.46 97.73Q127.73 98.45 128.26 98.87Q128.79 99.28 129.56 99.28ZM139.80 100.78L139.80 100.78Q138.48 100.78 137.52 100.21Q136.57 99.64 136.05 98.61Q135.54 97.57 135.54 96.18L135.54 96.18Q135.54 94.80 136.05 93.75Q136.57 92.70 137.50 92.11Q138.43 91.52 139.68 91.52L139.68 91.52Q140.44 91.52 141.15 91.77Q141.86 92.02 142.43 92.56Q142.99 93.09 143.32 93.95Q143.65 94.80 143.65 96.02L143.65 96.02L143.65 96.64L136.52 96.64L136.52 95.33L141.94 95.33Q141.94 94.65 141.66 94.11Q141.38 93.58 140.87 93.27Q140.37 92.96 139.69 92.96L139.69 92.96Q138.95 92.96 138.41 93.32Q137.86 93.68 137.57 94.25Q137.27 94.83 137.27 95.50L137.27 95.50L137.27 96.52Q137.27 97.42 137.59 98.05Q137.91 98.68 138.48 99.01Q139.05 99.34 139.82 99.34L139.82 99.34Q140.31 99.34 140.72 99.19Q141.13 99.05 141.43 98.77Q141.73 98.48 141.88 98.06L141.88 98.06L143.53 98.36Q143.34 99.09 142.83 99.63Q142.31 100.18 141.55 100.48Q140.78 100.78 139.80 100.78ZM152.14 93.82L152.14 93.82L150.56 94.10Q150.46 93.80 150.25 93.53Q150.03 93.25 149.67 93.08Q149.31 92.90 148.77 92.90L148.77 92.90Q148.03 92.90 147.53 93.23Q147.03 93.56 147.03 94.08L147.03 94.08Q147.03 94.53 147.37 94.80Q147.70 95.08 148.44 95.25L148.44 95.25L149.86 95.58Q151.10 95.87 151.71 96.46Q152.31 97.06 152.31 98.01L152.31 98.01Q152.31 98.81 151.85 99.44Q151.39 100.07 150.56 100.42Q149.74 100.78 148.65 100.78L148.65 100.78Q147.14 100.78 146.19 100.13Q145.24 99.49 145.03 98.30L145.03 98.30L146.71 98.04Q146.87 98.70 147.36 99.04Q147.85 99.37 148.64 99.37L148.64 99.37Q149.50 99.37 150.01 99.01Q150.52 98.65 150.52 98.14L150.52 98.14Q150.52 97.72 150.21 97.43Q149.90 97.14 149.26 97.00L149.26 97.00L147.74 96.67Q146.49 96.38 145.89 95.75Q145.29 95.13 145.29 94.17L145.29 94.17Q145.29 93.38 145.73 92.79Q146.18 92.19 146.96 91.85Q147.74 91.52 148.75 91.52L148.75 91.52Q150.20 91.52 151.04 92.15Q151.87 92.77 152.14 93.82ZM153.35 91.64L158.25 91.64L158.25 93.04L153.35 93.04L153.35 91.64ZM154.66 98.33L154.66 89.49L156.41 89.49L156.41 97.97Q156.41 98.47 156.56 98.73Q156.71 98.98 156.95 99.07Q157.20 99.16 157.48 99.16L157.48 99.16Q157.69 99.16 157.85 99.13Q158.01 99.10 158.10 99.09L158.10 99.09L158.41 100.53Q158.26 100.59 157.98 100.65Q157.70 100.71 157.28 100.71L157.28 100.71Q156.59 100.73 156.00 100.47Q155.40 100.21 155.03 99.68Q154.66 99.14 154.66 98.33L154.66 98.33ZM162.62 100.80L162.62 100.80Q161.76 100.80 161.08 100.48Q160.39 100.16 159.99 99.55Q159.59 98.95 159.59 98.07L159.59 98.07Q159.59 97.31 159.88 96.82Q160.17 96.33 160.67 96.04Q161.16 95.75 161.78 95.61Q162.39 95.46 163.02 95.39L163.02 95.39Q163.83 95.29 164.33 95.23Q164.83 95.17 165.06 95.03Q165.29 94.89 165.29 94.58L165.29 94.58L165.29 94.54Q165.29 93.77 164.86 93.35Q164.43 92.93 163.58 92.93L163.58 92.93Q162.70 92.93 162.20 93.32Q161.69 93.71 161.50 94.18L161.50 94.18L159.86 93.81Q160.15 92.99 160.72 92.48Q161.28 91.98 162.02 91.75Q162.75 91.52 163.56 91.52L163.56 91.52Q164.10 91.52 164.70 91.64Q165.31 91.77 165.83 92.10Q166.36 92.44 166.70 93.05Q167.04 93.67 167.04 94.65L167.04 94.65L167.04 100.60L165.34 100.60L165.34 99.37L165.27 99.37Q165.10 99.71 164.76 100.04Q164.42 100.36 163.89 100.58Q163.36 100.80 162.62 100.80ZM163.00 99.40L163.00 99.40Q163.72 99.40 164.24 99.11Q164.75 98.82 165.02 98.36Q165.29 97.90 165.29 97.37L165.29 97.37L165.29 96.21Q165.20 96.30 164.94 96.38Q164.67 96.46 164.33 96.52Q163.99 96.57 163.67 96.62Q163.35 96.66 163.14 96.69L163.14 96.69Q162.63 96.75 162.21 96.90Q161.79 97.06 161.55 97.34Q161.30 97.62 161.30 98.09L161.30 98.09Q161.30 98.74 161.78 99.07Q162.25 99.40 163.00 99.40ZM172.95 104.15L172.95 104.15Q171.89 104.15 171.12 103.86Q170.35 103.58 169.87 103.12Q169.38 102.66 169.14 102.11L169.14 102.11L170.64 101.50Q170.80 101.75 171.07 102.04Q171.33 102.33 171.79 102.53Q172.25 102.74 172.97 102.74L172.97 102.74Q173.96 102.74 174.61 102.26Q175.26 101.78 175.26 100.73L175.26 100.73L175.26 98.96L175.15 98.96Q174.99 99.25 174.70 99.60Q174.40 99.95 173.89 100.21Q173.37 100.46 172.55 100.46L172.55 100.46Q171.49 100.46 170.64 99.96Q169.79 99.47 169.30 98.49Q168.81 97.51 168.81 96.08L168.81 96.08Q168.81 94.65 169.29 93.63Q169.78 92.61 170.63 92.06Q171.48 91.52 172.56 91.52L172.56 91.52Q173.40 91.52 173.91 91.80Q174.42 92.07 174.71 92.44Q175.00 92.81 175.16 93.09L175.16 93.09L175.29 93.09L175.29 91.64L177.00 91.64L177.00 100.80Q177.00 101.95 176.46 102.69Q175.92 103.43 175.01 103.79Q174.10 104.15 172.95 104.15ZM172.94 99.02L172.94 99.02Q173.69 99.02 174.21 98.66Q174.73 98.31 175.00 97.65Q175.28 96.99 175.28 96.06L175.28 96.06Q175.28 95.15 175.01 94.47Q174.74 93.78 174.22 93.39Q173.70 93.00 172.94 93.00L172.94 93.00Q172.15 93.00 171.62 93.41Q171.10 93.81 170.83 94.51Q170.57 95.20 170.57 96.06L170.57 96.06Q170.57 96.94 170.84 97.60Q171.10 98.27 171.63 98.64Q172.16 99.02 172.94 99.02Z" fill="#FFFFFF"></path><g transform="scale(1.02)"><path id="keil" d="M175 56.135L0 86.9925V30.8575L175 0V56.135Z" fill="#FF0000"></path><g id="linke-schriftzug"><path id="Vector" d="M34.7823 46.0198C33.4673 44.4048 31.8048 43.2048 29.7923 42.4248C27.7798 41.6448 25.5448 41.4698 23.0848 41.9048L15.4023 43.2598L15.4198 70.9798L25.5598 69.1923C28.2998 68.7098 30.6398 67.5648 32.5773 65.7573C34.5148 63.9498 35.9048 61.7923 36.7423 59.2798C37.5798 56.7698 37.7723 54.2323 37.3223 51.6723C36.9423 49.5223 36.0948 47.6373 34.7823 46.0223V46.0198ZM30.0323 57.4923C29.6673 58.8648 29.0273 60.0323 28.1148 60.9998C27.2023 61.9673 26.1198 62.5598 24.8648 62.7823L22.3673 63.2223L22.3973 48.5623L23.9723 48.2848C25.0223 48.0998 25.9998 48.2123 26.9023 48.6198C27.8073 49.0298 28.5373 49.6523 29.0948 50.4898C29.6523 51.3298 30.0273 52.2998 30.2223 53.3998C30.4623 54.7573 30.3998 56.1223 30.0323 57.4923Z" fill="white"></path><path id="Vector_2" d="M45.3066 37.1326C44.5691 36.6151 43.7391 36.4401 42.8166 36.6026C42.1241 36.7251 41.4941 37.0076 40.9266 37.4501C40.3591 37.8926 39.9666 38.4376 39.7491 39.0826C39.5316 39.7276 39.4841 40.3826 39.6016 41.0501C39.7591 41.9476 40.1941 42.6551 40.9066 43.1776C41.6191 43.7001 42.4741 43.8726 43.4741 43.6951C44.1141 43.5826 44.7116 43.3051 45.2691 42.8651C45.8266 42.4251 46.2241 41.8776 46.4666 41.2276C46.7091 40.5776 46.7691 39.9076 46.6466 39.2151C46.4941 38.3451 46.0466 37.6501 45.3091 37.1351L45.3066 37.1326Z" fill="white"></path><path id="Vector_3" d="M39.957 46.4154L39.9995 66.6453L46.337 65.5278L46.2945 45.2979L39.957 46.4154Z" fill="white"></path><path id="Vector_4" d="M82.9119 31.3555L75.9219 32.588L75.9394 60.308L93.7993 57.158L93.8118 50.2655L82.9419 52.183L82.9119 31.3555Z" fill="white"></path><path id="Vector_5" d="M122.918 35.7077C122.273 34.4477 121.346 33.5227 120.131 32.9327C118.918 32.3402 117.518 32.1852 115.931 32.4652C114.856 32.6552 113.921 33.0502 113.131 33.6527C112.338 34.2552 111.726 34.9627 111.288 35.7802L111.096 35.8152L110.188 34.0352L105.578 34.8477L105.621 55.0777L111.958 53.9602L111.933 42.3602C111.933 41.7527 112.023 41.1827 112.206 40.6477C112.388 40.1152 112.686 39.6977 113.096 39.4027C113.506 39.1077 113.941 38.9177 114.401 38.8352C115.016 38.7277 115.556 38.7902 116.018 39.0252C116.481 39.2602 116.818 39.6352 117.031 40.1527C117.241 40.6702 117.361 41.2427 117.393 41.8702L117.413 52.9952L123.903 51.8502V40.1677C123.891 38.4527 123.563 36.9677 122.918 35.7077Z" fill="white"></path><path id="Vector_6" d="M144.483 27.9847L137.301 29.2497L132.933 37.9647L132.946 22.5322L126.608 23.6497L126.586 51.3772L132.926 50.2597L132.931 41.4522L137.841 49.3922L144.948 48.1397L138.826 38.8722L144.483 27.9847Z" fill="white"></path><path id="Vector_7" d="M96.2891 36.4827L96.3316 56.7127L102.669 55.5952L102.627 35.3652L96.2891 36.4827Z" fill="white"></path><path id="Vector_8" d="M108.144 19.46L91.2617 29.3275L99.0392 33.5325L108.144 19.46Z" fill="white"></path><path id="Vector_9" d="M162.969 35.0796C162.979 34.4571 162.932 33.8521 162.827 33.2621C162.524 31.5471 161.864 30.0846 160.847 28.8796C159.829 27.6721 158.607 26.8196 157.187 26.3171C155.764 25.8146 154.259 25.7046 152.672 25.9846C150.674 26.3371 148.939 27.2046 147.467 28.5846C145.994 29.9671 144.939 31.6321 144.307 33.5771C143.674 35.5246 143.522 37.4446 143.857 39.3396C144.169 41.1071 144.839 42.6246 145.869 43.8946C146.899 45.1646 148.142 46.0746 149.599 46.6221C151.054 47.1696 152.654 47.2921 154.397 46.9846C155.882 46.7221 157.197 46.2146 158.344 45.4571C159.492 44.6996 160.439 43.7471 161.187 42.5996C161.792 41.6721 162.247 40.7296 162.572 39.7721H156.449C156.204 40.1846 155.859 40.5821 155.412 40.9646C154.964 41.3471 154.394 41.5996 153.704 41.7221C153.064 41.8346 152.452 41.7771 151.872 41.5496C151.289 41.3221 150.824 40.9296 150.477 40.3696C150.244 39.9996 150.062 39.5596 149.917 39.0621L162.854 36.7821C162.922 36.2696 162.962 35.6996 162.969 35.0796ZM149.722 35.2171C149.727 35.1896 149.727 35.1621 149.732 35.1346C149.919 34.0996 150.304 33.2196 150.889 32.4946C151.474 31.7721 152.202 31.3321 153.074 31.1796C153.739 31.0621 154.352 31.1196 154.907 31.3521C155.462 31.5846 155.909 31.9471 156.247 32.4421C156.562 32.9046 156.772 33.4096 156.884 33.9546L149.722 35.2171Z" fill="white"></path><path id="Vector_10" d="M65.697 45.658C64.677 44.4505 63.4595 43.598 62.037 43.0955C60.6145 42.593 59.1095 42.483 57.522 42.763C55.5245 43.1155 53.7895 43.983 52.317 45.363C50.8445 46.7455 49.792 48.408 49.157 50.3555C48.5245 52.303 48.3745 54.223 48.707 56.118C49.0195 57.8855 49.6895 59.403 50.7195 60.673C51.7495 61.943 52.992 62.853 54.447 63.403C55.9045 63.9505 57.502 64.073 59.2445 63.7655C60.7295 63.503 62.0445 62.9955 63.192 62.238C64.3395 61.4805 65.287 60.528 66.0345 59.3805C66.6395 58.453 67.097 57.508 67.4195 56.553H61.297C61.052 56.9655 60.707 57.363 60.2595 57.7455C59.812 58.128 59.242 58.3805 58.552 58.503C57.912 58.6155 57.2995 58.558 56.7195 58.3305C56.137 58.103 55.672 57.7105 55.3245 57.1505C55.092 56.7805 54.9095 56.3405 54.7645 55.843L67.702 53.563C67.7695 53.0505 67.807 52.483 67.817 51.8605C67.827 51.238 67.7795 50.633 67.6745 50.043C67.372 48.328 66.712 46.8655 65.6945 45.6605L65.697 45.658ZM54.572 51.9955C54.577 51.968 54.577 51.9405 54.582 51.913C54.7695 50.878 55.1545 49.998 55.7395 49.273C56.3245 48.5505 57.052 48.1105 57.9245 47.958C58.5895 47.8405 59.202 47.898 59.757 48.1305C60.312 48.363 60.7595 48.7255 61.097 49.2205C61.412 49.683 61.622 50.188 61.7345 50.733L54.572 51.9955Z" fill="white"></path></g></g></g></svg>